# xmcd
#
# Track frame offsets: 
#        150
#        28006
#        53871
#        77627
#        94187
#        119948
#        143289
#        172030
#        197884
#        226423
#        246267
#
# Disc length: 3500 seconds
#
# Revision: 0
# Processed by: cddbd v1.5.2PL0 Copyright (c) Steve Scherf et al.
# Submitted via: ExactAudioCopyFreeDBPlugin 1.0
#
DISCID=970daa0b
DTITLE=Lazy Boyz Brass Band - Klout
DYEAR=2013
DGENRE=New Orleans Brass Band
TTITLE0=12
TTITLE1=Always On Time
TTITLE2=Freddie Hubbard
TTITLE3=Mess With You
TTITLE4=Music Is The Key
TTITLE5=Come and Dance
TTITLE6=Carmel
TTITLE7=All I Did
TTITLE8=Always There
TTITLE9=Friends and Strangers
TTITLE10=We Like To Party - Outro
EXTD=
EXTT0=
EXTT1=
EXTT2=
EXTT3=
EXTT4=
EXTT5=
EXTT6=
EXTT7=
EXTT8=
EXTT9=
EXTT10=
PLAYORDER=
